# xmcd
#
# Track frame offsets: 
#        150
#        8787
#        22108
#        34974
#        47537
#        59216
#        67783
#        80316
#        93065
#        103740
#        113401
#        127629
#        136453
#        147605
#        158806
#        171758
#        181197
#        191452
#        203827
#        215861
#
# Disc length: 3010 seconds
#
# Revision: 0
# Processed by: cddbd v1.5.2PL0 Copyright (c) Steve Scherf et al.
# Submitted via: ExactAudioCopy v0.99pb5
#
DISCID=120bc014
DTITLE=Various Artist - Country and Western Hits And Rarities CD02
DYEAR=1900
DGENRE=
TTITLE0=Don Gibson - Blue Blue Day
TTITLE1=Vaughn Monroe - Riders In The Sky
TTITLE2=Johnny Cash - Folsom Prison Blues
TTITLE3=Red Foley - Chattanoogie Shoe Shine Boy
TTITLE4=Marvin Rainwater - Gonna Find Me A Bluebird
TTITLE5=Johnny Horton - All Grown Up
TTITLE6=Hardrock Gunter - Birmingham Bounce
TTITLE7=Hank Williams - Pan American
TTITLE8=Hank Thompson - Rockin' In The Congo
TTITLE9=Marty Robbins - Call Me Up
TTITLE10=The Everly Brothers - That Silver-Haired Daddy Of Mine
TTITLE11=Webb Pierce - I Ain't Never
TTITLE12=Johnny Horton - Cherokee Boogie
TTITLE13=Johnny and His Blue Grass Boys Duncan - Last Train To San Ferna
TTITLE13=ndo
TTITLE14=Hank Snow - The Rumba Boogie
TTITLE15=Jim Reeves - Bill Bayou
TTITLE16=Johnny Cash - Get Rhythm
TTITLE17=Ernest Tubb, Red Foley - Hillbilly Fever
TTITLE18=Johnny Horton - When It's Springtime In Alaska
TTITLE19=Marty Robbins - Knee Deep In The Blues
EXTD=
EXTT0=
EXTT1=
EXTT2=
EXTT3=
EXTT4=
EXTT5=
EXTT6=
EXTT7=
EXTT8=
EXTT9=
EXTT10=
EXTT11=
EXTT12=
EXTT13=
EXTT14=
EXTT15=
EXTT16=
EXTT17=
EXTT18=
EXTT19=
PLAYORDER=
